<svg xmlns="http://www.w3.org/2000/svg" viewBox="0 0 24 24" fill="black">
  <path fill-rule="evenodd" clip-rule="evenodd" d="M16.2558 7.70994C16.5501 8.0015 16.5522 8.47637 16.2607 8.77059L13.0327 12.028C12.7412 12.3222 12.2663 12.3244 11.9721 12.0328C11.6779 11.7413 11.6757 11.2664 11.9673 10.9722L15.1952 7.71476C15.4867 7.42054 15.9616 7.41838 16.2558 7.70994ZM21.2573 7.71232C21.5502 8.00519 21.5503 8.48007 21.2574 8.77298L12.773 17.2583C12.6323 17.399 12.4416 17.478 12.2427 17.478C12.0437 17.478 11.853 17.399 11.7123 17.2583L7.46967 13.0157C7.17678 12.7228 7.17678 12.2479 7.46967 11.955C7.76256 11.6621 8.23744 11.6621 8.53033 11.955L12.2426 15.6673L20.1967 7.71238C20.4895 7.41947 20.9644 7.41944 21.2573 7.71232ZM2.46967 11.955C2.76256 11.6621 3.23744 11.6621 3.53033 11.955L7.77297 16.1977C8.06586 16.4906 8.06586 16.9654 7.77297 17.2583C7.48008 17.5512 7.0052 17.5512 6.71231 17.2583L2.46967 13.0157C2.17678 12.7228 2.17678 12.2479 2.46967 11.955Z"/>
</svg>