<svg xmlns="http://www.w3.org/2000/svg" viewBox="0 0 24 24" fill="black">
  <path fill-rule="evenodd" clip-rule="evenodd"
    d="M2.46967 2.46967C2.76256 2.17678 3.23744 2.17678 3.53033 2.46967L12 10.9394L20.4697 2.46967C20.7626 2.17678 21.2375 2.17678 21.5304 2.46967C21.8233 2.76256 21.8233 3.23744 21.5304 3.53033L13.0607 12L21.5303 20.4696C21.8232 20.7625 21.8232 21.2374 21.5303 21.5303C21.2374 21.8232 20.7625 21.8232 20.4696 21.5303L12 13.0607L3.53033 21.5304C3.23744 21.8233 2.76256 21.8233 2.46967 21.5304C2.17678 21.2375 2.17678 20.7626 2.46967 20.4697L10.9394 12L2.46967 3.53033C2.17678 3.23744 2.17678 2.76256 2.46967 2.46967Z" />
</svg>